<?xml version="1.0" encoding="UTF-8"?>
<svg version="1.1" xmlns="http://www.w3.org/2000/svg" width="4500" height="2836">
<path d="M0 0 C2.9375 0.9375 2.9375 0.9375 4.875 2.5625 C7.48523295 8.39713837 3.74426085 16.29210025 1.9296875 22.05078125 C1.46054932 23.56230774 1.46054932 23.56230774 0.98193359 25.10437012 C-0.06953516 28.48782813 -1.12857774 31.86886798 -2.1875 35.25 C-2.94696042 37.68888791 -3.70589801 40.12793867 -4.46435547 42.56713867 C-6.11383895 47.86992368 -7.76686907 53.17159242 -9.421875 58.47265625 C-12.1227892 67.12505783 -14.81219748 75.78101796 -17.5 84.4375 C-18.4383518 87.45924199 -19.37675753 90.48096723 -20.31518555 93.50268555 C-20.6680074 94.63878659 -20.6680074 94.63878659 -21.02795696 95.79783916 C-23.71045418 104.43491882 -26.39616823 113.07099778 -29.08203125 121.70703125 C-30.07764326 124.90836385 -31.07324738 128.10969891 -32.06884766 131.31103516 C-32.43934565 132.5023588 -32.43934565 132.5023588 -32.81732845 133.7177496 C-35.54946557 142.50302989 -38.28068995 151.28859387 -41.01171875 160.07421875 C-41.37748425 161.25085964 -41.37748425 161.25085964 -41.75063896 162.45127106 C-44.41909336 171.03556944 -47.08718526 179.61998036 -49.75463867 188.20458984 C-49.98985261 188.9615641 -50.22506655 189.71853836 -50.46740818 190.49845123 C-50.70156909 191.25203667 -50.93573 192.0056221 -51.17698669 192.78204346 C-51.41004454 193.53207893 -51.64310238 194.28211441 -51.88322258 195.05487823 C-52.35047194 196.55861393 -52.81771263 198.06235232 -53.28494453 199.56609344 C-55.9648963 208.19112177 -58.64643743 216.81565167 -61.33128452 225.43915749 C-63.17486698 231.36065744 -65.01681696 237.282664 -66.85824585 243.20483398 C-67.5994781 245.58752329 -68.34132454 247.97002165 -69.08389282 250.35229492 C-74.22251192 266.83880403 -79.19650643 283.36853661 -84.0625 299.9375 C-82.72541992 299.84770874 -82.72541992 299.84770874 -81.36132812 299.75610352 C-72.46031405 299.16028006 -63.55921188 298.56598377 -54.65576172 298.00756836 C-53.26013983 297.91918223 -51.86462976 297.82901252 -50.46923828 297.73706055 C-35.4454184 296.74915929 -20.59858377 296.78700239 -5.5625 297.75 C-4.53482513 297.8152739 -4.53482513 297.8152739 -3.48638916 297.88186646 C5.72305089 298.47611424 14.90241278 299.23449997 24.0625 300.375 C25.44598633 300.53995972 25.44598633 300.53995972 26.85742188 300.70825195 C31.73711961 301.36885254 35.68318049 302.28024931 39.9375 304.9375 C42.52931875 310.1211375 40.87944351 315.65669817 39.18774414 320.8671875 C38.37886617 323.18680126 37.55627285 325.50166142 36.72265625 327.8125 C36.27514028 329.08100322 35.82873542 330.34989889 35.38336182 331.61915588 C34.18566557 335.02263827 32.97276565 338.42051674 31.7569313 341.81755447 C30.48206628 345.38808246 29.22163564 348.96369905 27.9597168 352.53881836 C25.67252214 359.01236498 23.37375727 365.48172514 21.06941509 371.94918537 C18.8228835 378.25561518 16.58931105 384.56658964 14.359375 390.87890625 C11.97888515 397.61464421 9.59447752 404.34895944 7.20370483 411.08105469 C3.76753611 420.75783012 0.3493732 430.44078756 -3.0546875 440.12890625 C-3.6893972 441.93504143 -3.6893972 441.93504143 -4.33692932 443.77766418 C-6.38283504 449.60060405 -8.42716616 455.42409129 -10.46948242 461.24829102 C-15.24220676 474.84534 -20.10387656 488.40710942 -25.0625 501.9375 C-24.40987183 502.06125504 -23.75724365 502.18501007 -23.08483887 502.31251526 C42.09078285 514.95506332 109.75661615 555.98299055 159.9375 597.9375 C160.45892578 598.37255859 160.98035156 598.80761719 161.51757812 599.25585938 C177.2203793 612.40023486 192.90442562 626.32524451 206.2109375 641.93359375 C208.15491046 644.18983386 210.17073518 646.37113893 212.1875 648.5625 C217.23199303 654.16086473 221.85417072 660.04419645 226.44873047 666.01171875 C227.96650591 667.97502028 229.49975273 669.92546363 231.03515625 671.875 C243.18806565 687.40640334 254.13150798 703.82785658 263.9375 720.9375 C264.32325195 721.60749023 264.70900391 722.27748047 265.10644531 722.96777344 C283.90553203 755.77165043 301.19559519 791.73013657 308.9375 828.9375 C309.80890625 828.90269531 310.6803125 828.86789062 311.578125 828.83203125 C327.51859145 828.46974792 341.84534268 832.67240158 354.25 843 C365.07974783 853.49076066 372.29769672 867.59801643 373.08454514 882.77346706 C373.09489414 883.75873914 373.10524315 884.74401121 373.11590576 885.75914001 C373.13709221 887.46810455 373.13709221 887.46810455 373.15870667 889.21159363 C373.16917526 890.44750748 373.17964386 891.68342133 373.19042969 892.95678711 C373.20514816 894.26980804 373.21986664 895.58282898 373.23503113 896.93563843 C373.27479114 900.52911346 373.30821389 904.12261892 373.33961773 907.71617579 C373.35940272 909.96799881 373.38024029 912.21980983 373.40137482 914.47162056 C373.46730229 921.53610387 373.52921224 928.60060617 373.58555388 935.66517252 C373.65035798 943.78363583 373.72845783 951.90182527 373.81823611 960.02004999 C373.88704837 966.31751521 373.94368829 972.61501968 373.99140286 978.91267973 C374.02008379 982.6629471 374.05367444 986.41300556 374.10005951 990.16309929 C374.14347707 993.69993558 374.17155747 997.23658933 374.18871498 1000.77364731 C374.20153841 1002.66374723 374.22959299 1004.55372551 374.25840759 1006.44364929 C374.30215231 1024.3518855 369.93974444 1040.53536278 357.40380859 1053.8034668 C343.94554164 1067.15075174 328.13290197 1070.50168199 309.9375 1070.9375 C309.76444336 1072.67362549 309.76444336 1072.67362549 309.58789062 1074.44482422 C309.04340535 1078.76925729 307.9242122 1082.70158951 306.53125 1086.8203125 C306.29082977 1087.5485321 306.05040955 1088.27675171 305.80270386 1089.02703857 C305.02339778 1091.37534756 304.23167251 1093.71918022 303.4375 1096.0625 C303.03183807 1097.26885101 303.03183807 1097.26885101 302.61798096 1098.49957275 C298.22704754 1111.5374769 293.48069058 1124.34044713 287.9375 1136.9375 C287.55416504 1137.82469727 287.17083008 1138.71189453 286.77587891 1139.62597656 C274.99213208 1166.83703364 260.23248234 1192.84605095 242.9375 1216.9375 C242.11330566 1218.08847168 242.11330566 1218.08847168 241.27246094 1219.26269531 C234.65615377 1228.46494052 227.89464949 1237.45335941 220.4609375 1246.01171875 C217.99068301 1248.87583734 215.61552228 1251.79915224 213.25 1254.75 C209.98118828 1258.77046361 206.54004498 1262.44836499 202.82421875 1266.0546875 C200.99030067 1267.88480865 199.30501852 1269.77867186 197.625 1271.75 C191.3130708 1279.070685 184.36232046 1285.87682305 177.0078125 1292.14453125 C174.5547589 1294.26896824 172.19046853 1296.47938637 169.8125 1298.6875 C164.07691585 1303.9116809 158.05205035 1308.67750532 151.90771484 1313.40869141 C149.81709992 1315.03092568 147.74550363 1316.67542528 145.67578125 1318.32421875 C121.04933191 1337.86889089 94.03818508 1353.90534729 65.9375 1367.9375 C65.13715332 1368.34162109 64.33680664 1368.74574219 63.51220703 1369.16210938 C8.77283103 1396.66424064 -53.8233654 1411.23332337 -114.875 1413.5 C-116.44604492 1413.56477539 -116.44604492 1413.56477539 -118.04882812 1413.63085938 C-214.8116618 1417.32768079 -309.83660461 1390.27270213 -441.65625 1297.1328125 C-442.97678589 1295.92803787 -444.30511741 1294.7309668 -445.66625977 1293.57226562 C-451.82957015 1288.30990159 -457.55343371 1282.63268582 -463.2800293 1276.90527344 C-464.98793056 1275.19955402 -466.70368045 1273.50200973 -468.41992188 1271.8046875 C-474.37460588 1265.87969141 -479.97598372 1259.88004973 -485.18676758 1253.28076172 C-486.98244826 1251.03750477 -488.85994965 1248.91944943 -490.8125 1246.8125 C-514.61945733 1220.22963262 -533.1910868 1188.71871613 -549.0625 1156.9375 C-549.53139648 1156.00760254 -550.00029297 1155.07770508 -550.48339844 1154.11962891 C-562.83712551 1129.51022021 -572.71845467 1103.48622386 -580.0625 1076.9375 C-581.36960937 1076.88142578 -581.36960937 1076.88142578 -582.703125 1076.82421875 C-602.10702738 1075.75322414 -616.70414427 1070.07025316 -630.0625 1055.9375 C-637.80886268 1046.94263931 -643.03030707 1035.26118564 -643.26782227 1023.28686523 C-643.29770988 1021.91755608 -643.29770988 1021.91755608 -643.32820129 1020.52058411 C-643.34493393 1019.52250229 -643.36166656 1018.52442047 -643.37890625 1017.49609375 C-643.39986862 1016.42119186 -643.42083099 1015.34628998 -643.44242859 1014.23881531 C-643.50985537 1010.61762505 -643.56850866 1006.99637678 -643.625 1003.375 C-643.65527283 1001.49491241 -643.65527283 1001.49491241 -643.68615723 999.57684326 C-644.04956073 976.28879587 -644.22665406 952.99847671 -644.29367065 929.70779419 C-644.30473508 925.95779311 -644.32256387 922.20791958 -644.34622192 918.45797729 C-644.37379908 913.98263849 -644.38585619 909.5075047 -644.38663673 905.03208351 C-644.3892491 903.37865394 -644.39688192 901.72522289 -644.41010094 900.0718441 C-644.54869162 881.68487194 -641.469159 865.81959883 -628.265625 852.11328125 C-627.17507813 851.03626953 -627.17507813 851.03626953 -626.0625 849.9375 C-625.52109375 849.37417969 -624.9796875 848.81085937 -624.421875 848.23046875 C-612.12466882 836.46117294 -597.16176968 834.58581692 -581.0625 834.9375 C-580.8459375 833.64070313 -580.629375 832.34390625 -580.40625 831.0078125 C-578.81303569 823.07795037 -576.13774983 815.46505297 -573.5625 807.8125 C-573.29550293 807.01548676 -573.02850586 806.21847351 -572.75341797 805.39730835 C-560.14336258 767.87366267 -542.88513723 731.98783257 -521.0625 698.9375 C-520.60520508 698.24462891 -520.14791016 697.55175781 -519.67675781 696.83789062 C-508.16720119 679.51969528 -495.43147599 662.8698473 -481.3984375 647.51953125 C-480.15374103 646.14370455 -478.91419069 644.76245741 -477.71484375 643.34692383 C-472.19598353 636.86725206 -466.19069769 630.87960352 -460.17578125 624.86547852 C-458.32521033 623.01272532 -456.48279924 621.15211294 -454.640625 619.29101562 C-447.75282407 612.37087028 -440.73379374 605.98926271 -433.0625 599.9375 C-431.93747352 598.99078704 -430.81786815 598.03754185 -429.70703125 597.07421875 C-372.3297655 547.45277651 -302.79323128 518.33482863 -229.9375 500.0625 C-229.16623779 499.86904999 -228.39497559 499.67559998 -227.6003418 499.47628784 C-204.87115206 493.79611815 -204.87115206 493.79611815 -198.0625 493.9375 C-197.66550903 492.66483276 -197.66550903 492.66483276 -197.26049805 491.36645508 C-196.01443204 487.79991809 -194.52113169 484.48369402 -192.89453125 481.07421875 C-192.5826033 480.41691269 -192.27067535 479.75960663 -191.94929504 479.0823822 C-191.27713533 477.66611768 -190.60358374 476.25051306 -189.92877197 474.83551025 C-188.1250769 471.05187721 -186.33312595 467.26270984 -184.54296875 463.47265625 C-184.17417603 462.69190735 -183.8053833 461.91115845 -183.42541504 461.10675049 C-178.76611711 451.21871864 -174.26168433 441.26051017 -169.76098633 431.29956055 C-169.45907883 430.63179092 -169.15717133 429.9640213 -168.84611511 429.27601624 C-168.03382677 427.47829715 -167.22315093 425.67984971 -166.41259766 423.88134766 C-165.33869972 421.53974525 -164.22188947 419.23699635 -163.0625 416.9375 C-190.275754 419.55991291 -217.26114997 422.45273799 -244.0625 427.9375 C-245.20831543 428.17049805 -246.35413086 428.40349609 -247.53466797 428.64355469 C-266.47297502 432.57367607 -285.68686605 437.51924574 -303.81835938 444.32763672 C-305.03845703 444.78541504 -306.25855469 445.24319336 -307.515625 445.71484375 C-308.60520508 446.13886475 -309.69478516 446.56288574 -310.81738281 446.99975586 C-314.40123836 448.0353855 -317.34988401 448.17963941 -321.0625 447.9375 C-323.61923576 446.40345854 -323.99104786 445.14030247 -324.98046875 442.33203125 C-325.10359 437.23715662 -322.55240834 434.65543829 -319.5 430.75 C-318.91154297 429.96753906 -318.32308594 429.18507813 -317.71679688 428.37890625 C-316.47137751 426.72361872 -315.21908283 425.07348483 -313.96044922 423.42822266 C-310.94339077 419.46886708 -308.00782553 415.45031452 -305.0625 411.4375 C-303.88554467 409.84365547 -302.70846139 408.24990541 -301.53125 406.65625 C-298.17780834 402.10515061 -294.86500014 397.52564497 -291.5625 392.9375 C-287.10229047 386.74095586 -282.59990365 380.57773977 -278.0625 374.4375 C-271.32696941 365.32001634 -264.68386363 356.13809231 -258.0625 346.9375 C-250.86127656 336.9311743 -243.61994101 326.95810494 -236.29321289 317.04321289 C-232.34842959 311.69914384 -228.44287592 306.32848455 -224.5625 300.9375 C-219.52242181 293.93534758 -214.42036615 286.98136744 -209.29296875 280.04296875 C-205.34834596 274.69892324 -201.44280944 269.32839219 -197.5625 263.9375 C-193.10229047 257.74095586 -188.59990365 251.57773977 -184.0625 245.4375 C-177.32696941 236.32001634 -170.68386363 227.13809231 -164.0625 217.9375 C-156.86127656 207.9311743 -149.61994101 197.95810494 -142.29321289 188.04321289 C-138.34842959 182.69914384 -134.44287592 177.32848455 -130.5625 171.9375 C-125.52242181 164.93534758 -120.42036615 157.98136744 -115.29296875 151.04296875 C-111.34834596 145.69892324 -107.44280944 140.32839219 -103.5625 134.9375 C-99.10229047 128.74095586 -94.59990365 122.57773977 -90.0625 116.4375 C-83.32696941 107.32001634 -76.68386363 98.13809231 -70.0625 88.9375 C-62.86127656 78.9311743 -55.61994101 68.95810494 -48.29321289 59.04321289 C-44.34842834 53.69914214 -40.44300053 48.3283962 -36.5625 42.9375 C-30.31820246 34.26613757 -23.99639265 25.65370266 -17.63574219 17.06738281 C-16.18994718 15.11004022 -14.75353132 13.14624646 -13.3203125 11.1796875 C-12.52620593 10.09883763 -11.73194831 9.01809871 -10.9375 7.9375 C-10.27492188 7.03 -9.61234375 6.1225 -8.9296875 5.1875 C-6.14080687 1.8268405 -4.47485279 -0.09132353 0 0 Z M-240.0625 628.9375 C-241.07473633 629.27120605 -242.08697266 629.60491211 -243.12988281 629.94873047 C-285.2454232 644.05079636 -324.3913117 666.06048655 -357.60449219 695.64257812 C-358.88433277 696.77926172 -360.17928908 697.8988783 -361.4765625 699.015625 C-374.32341636 710.22903009 -386.64272888 722.43111743 -397.0625 735.9375 C-397.93632361 736.99142723 -398.81420529 738.04199815 -399.6953125 739.08984375 C-449.03813604 798.2610137 -475.24684919 875.32660963 -475.3125 952 C-475.31350708 952.8256546 -475.31451416 953.6513092 -475.31555176 954.50198364 C-475.30277486 970.13620713 -474.2414023 985.44097613 -472.0625 1000.9375 C-471.92859863 1001.92105469 -471.79469727 1002.90460938 -471.65673828 1003.91796875 C-463.13856359 1064.46412193 -435.88974795 1122.02725619 -397.0625 1168.9375 C-396.28648437 1169.89914062 -395.51046875 1170.86078125 -394.7109375 1171.8515625 C-388.08888353 1179.91641035 -380.85476488 1187.35941526 -373.5 1194.75 C-372.77609573 1195.48166885 -372.77609573 1195.48166885 -372.03756714 1196.2281189 C-365.39317645 1202.92862322 -358.45209413 1209.06742537 -351.0625 1214.9375 C-349.85390989 1215.93796016 -348.64777034 1216.94139648 -347.4453125 1217.94921875 C-328.16758813 1233.88088512 -306.58056498 1247.158173 -284.05419922 1257.97412109 C-282.07979324 1258.92913531 -280.11977053 1259.90958141 -278.16015625 1260.89453125 C-244.65222336 1277.49467869 -207.11457575 1286.8841074 -170.0625 1290.9375 C-168.8096521 1291.08106934 -168.8096521 1291.08106934 -167.53149414 1291.22753906 C-157.05328741 1292.27301771 -146.51952167 1292.18127131 -136 1292.1875 C-134.97571899 1292.18817474 -133.95143799 1292.18884949 -132.89611816 1292.18954468 C-116.75800289 1292.1726849 -101.01609781 1291.57626678 -85.0625 1288.9375 C-83.47381104 1288.68009033 -83.47381104 1288.68009033 -81.85302734 1288.41748047 C-20.44798032 1278.18483004 38.03885388 1252.16561281 84.9375 1210.9375 C85.64777344 1210.32648437 86.35804688 1209.71546875 87.08984375 1209.0859375 C98.72273602 1199.046918 109.9557894 1188.63606483 119.9375 1176.9375 C120.72640625 1176.03773438 121.5153125 1175.13796875 122.328125 1174.2109375 C171.25553511 1118.00016059 203.77723998 1041.32965312 204.140625 966.3125 C204.14763931 965.33548126 204.15465363 964.35846252 204.16188049 963.35183716 C204.1792893 960.2136773 204.18573357 957.07570639 204.1875 953.9375 C204.18817474 952.86336853 204.18884949 951.78923706 204.18954468 950.68255615 C204.17313839 934.2385482 203.65468008 918.19021325 200.9375 901.9375 C200.68009033 900.35316162 200.68009033 900.35316162 200.41748047 898.73681641 C189.40580964 832.63726953 160.09863511 772.72950688 115.0546875 723.27734375 C113.64734475 721.72199632 112.25646313 720.15158863 110.8828125 718.56640625 C107.11604243 714.22069681 103.25182228 710.3208227 98.859375 706.609375 C97.01289056 705.00308366 95.32216977 703.32432386 93.625 701.5625 C89.06765103 696.94356523 84.00264273 692.98049953 78.9375 688.9375 C77.95523438 688.12667969 76.97296875 687.31585937 75.9609375 686.48046875 C60.74999355 674.04956199 44.06291767 663.10452439 26.71728516 653.89355469 C24.97753382 652.95900513 23.25982157 651.98379097 21.54296875 651.0078125 C-56.34513828 607.47439241 -155.97117823 601.19156139 -240.0625 628.9375 Z " fill="#0A1425" transform="translate(1873.0625,491.0625)"/>
<path d="M0 0 C1.400224 0.00090637 1.400224 0.00090637 2.82873535 0.00183105 C72.00457819 0.12240282 139.59794645 13.02417147 202.60595703 41.94726562 C205.01034501 43.04904183 207.42267189 44.12979402 209.83984375 45.203125 C248.4417893 62.5703776 285.34861581 87.59037151 316.29296875 116.4140625 C318.53227265 118.49447003 320.82533884 120.500707 323.140625 122.49609375 C327.57138422 126.35797185 331.73151269 130.45901411 335.875 134.625 C336.59107422 135.33720703 337.30714844 136.04941406 338.04492188 136.78320312 C342.67411482 141.42082044 347.0479893 146.21450003 351.3125 151.1875 C352.26203712 152.27039461 353.21250793 153.35247147 354.1640625 154.43359375 C417.94412526 227.55093032 456.65118252 322.67232512 465.5 459 C465.49906342 459.84399353 465.49812683 460.68798706 465.49716187 461.55755615 C465.32933939 532.04795544 450.02616149 600.65619658 419.3125 664.1875 C418.93883301 664.96657715 418.56516602 665.7456543 418.18017578 666.54833984 C415.9715013 671.13802674 413.6805141 675.67804444 411.3125 680.1875 C410.92304199 680.93064453 410.53358398 681.67378906 410.13232422 682.43945312 C399.19219324 703.15920563 386.54401097 722.58568251 372.3125 741.1875 C371.8268457 741.82623047 371.34119141 742.46496094 370.84082031 743.12304688 C355.31022631 763.48997001 337.95323664 783.56842782 318.50390625 800.27734375 C315.9379973 802.51393818 313.4409357 804.81874067 310.9375 807.125 C305.88785971 811.71433295 300.72250918 816.03069548 295.3125 820.1875 C294.63606445 820.70940918 293.95962891 821.23131836 293.26269531 821.76904297 C276.02596483 835.02608408 258.18138054 847.36028634 239.3125 858.1875 C238.6637793 858.56261719 238.01505859 858.93773437 237.34667969 859.32421875 C164.29576107 901.38701455 83.27698634 921.4764036 -0.875 921.375 C-1.88561493 921.37406342 -2.89622986 921.37312683 -3.93746948 921.37216187 C-71.89098164 921.23633647 -139.8224585 908.99062752 -201.6875 880.1875 C-202.67733887 879.73294434 -203.66717773 879.27838867 -204.68701172 878.81005859 C-244.32698427 860.5527478 -281.07355307 837.26244164 -313.6875 808.1875 C-314.58210938 807.40375 -315.47671875 806.62 -316.3984375 805.8125 C-323.08836447 799.8318203 -329.46986484 793.53247839 -335.83743286 787.21279907 C-336.84508155 786.21319029 -337.85420601 785.21506645 -338.86495972 784.21859741 C-344.80537543 778.35327802 -350.36509346 772.32931067 -355.57788086 765.79394531 C-357.58408887 763.31526498 -359.66466888 760.94147449 -361.8046875 758.578125 C-365.72591295 754.20914716 -369.30640163 749.64367869 -372.8125 744.9375 C-373.77518799 743.64658447 -373.77518799 743.64658447 -374.75732422 742.32958984 C-404.33984322 702.29424251 -426.77478123 658.29654882 -442.6875 611.1875 C-443.0287793 610.18380371 -443.37005859 609.18010742 -443.72167969 608.14599609 C-453.96557921 577.62505719 -459.91077061 546.10187318 -463.6875 514.1875 C-463.81882324 513.12708496 -463.95014648 512.06666992 -464.08544922 510.97412109 C-468.35089132 475.06185051 -467.34380043 437.0344086 -462.6875 401.1875 C-462.54538086 400.09163574 -462.54538086 400.09163574 -462.40039062 398.97363281 C-455.30593517 345.16242005 -438.88318111 294.71900756 -414.6875 246.1875 C-414.25969238 245.32785645 -413.83188477 244.46821289 -413.39111328 243.58251953 C-396.89732335 210.70616315 -375.19286134 180.5452139 -350.6875 153.1875 C-350.2116748 152.65382813 -349.73584961 152.12015625 -349.24560547 151.5703125 C-342.86010948 144.43736526 -336.1918837 137.59589322 -329.4375 130.8125 C-328.69282471 130.06315186 -327.94814941 129.31380371 -327.1809082 128.54174805 C-322.51112064 123.88545548 -317.69019005 119.4817166 -312.6875 115.1875 C-311.63933033 114.26188068 -310.59237864 113.33487959 -309.546875 112.40625 C-284.11885407 90.0614021 -255.53244896 71.46897761 -225.82861328 55.35644531 C-223.84325794 54.27253638 -221.87188622 53.16698493 -219.90234375 52.0546875 C-153.39320349 15.04708936 -75.50329388 -0.09129782 0 0 Z M-51.6875 148.1875 C-52.78803711 148.37022461 -53.88857422 148.55294922 -55.02246094 148.74121094 C-115.03847536 158.9364 -178.42682075 189.73658847 -218.046875 237.2421875 C-219.18599031 238.59285279 -220.3668526 239.90896123 -221.578125 241.1953125 C-267.44499115 289.95009245 -292.27924484 357.62865105 -299.6875 423.1875 C-299.790625 424.0650293 -299.89375 424.94255859 -300 425.84667969 C-302.80826335 453.65851641 -302.19444034 483.61944084 -297.6875 511.1875 C-297.48882324 512.41597656 -297.29014648 513.64445312 -297.08544922 514.91015625 C-289.87336158 558.08544048 -275.2050171 600.10741302 -251.6875 637.1875 C-250.71103516 638.73824219 -250.71103516 638.73824219 -249.71484375 640.3203125 C-237.79251738 658.68118473 -223.78662181 675.38641354 -208.6875 691.1875 C-207.85863281 692.05890625 -207.02976562 692.9303125 -206.17578125 693.828125 C-200.71595163 699.43498773 -194.79965955 704.31185929 -188.6875 709.1875 C-187.57521678 710.11135093 -186.4646064 711.03721872 -185.35546875 711.96484375 C-142.06151891 747.86699799 -88.18932651 768.61724847 -32.6875 775.1875 C-31.46861084 775.3421875 -31.46861084 775.3421875 -30.22509766 775.5 C45.28607856 783.85531687 123.73376655 762.37596588 183.3125 715.1875 C184.65441406 714.13369141 184.65441406 714.13369141 186.0234375 713.05859375 C201.17604571 700.92348202 215.2316551 687.38106711 227.3125 672.1875 C228.01761719 671.34960938 228.72273438 670.51171875 229.44921875 669.6484375 C240.97640936 655.94825764 250.39139567 641.22552455 259.00195312 625.55761719 C260.11929311 623.53691366 261.26151675 621.53519536 262.421875 619.5390625 C304.17583488 545.52067908 310.70151406 450.20731494 288.3125 369.1875 C274.25249568 321.4428582 251.27931039 277.6009342 217.6328125 240.73046875 C216.01082348 238.95283432 214.40249545 237.16268179 212.8046875 235.36328125 C208.53387556 230.57657612 204.25927977 226.03569016 199.34375 221.91015625 C197.09947288 220.00683661 194.96548903 218.00586812 192.8125 216 C154.52574432 181.52433026 104.91039942 158.97786897 54.625 149.4375 C53.58174561 149.23866211 52.53849121 149.03982422 51.46362305 148.83496094 C33.91330203 145.67576768 16.55569372 144.80947412 -1.25 144.875 C-2.30675934 144.87715515 -3.36351868 144.8793103 -4.45230103 144.88153076 C-20.39585341 144.93364224 -35.95151483 145.41236523 -51.6875 148.1875 Z " fill="#0A1425" transform="translate(3574.6875,983.8125)"/>
<path d="M0 0 C2.86770929 2.45300645 5.82241996 4.75771552 8.80078125 7.07421875 C15.54288564 12.57797743 20.27844443 18.73261625 21.86328125 27.44921875 C22.6152463 36.62319241 20.55819142 43.74796864 14.73828125 50.94921875 C13.13241901 52.79933836 11.50732424 54.63294268 9.86328125 56.44921875 C9.11304687 57.28453125 8.3628125 58.11984375 7.58984375 58.98046875 C6.09949572 60.63292482 4.60465783 62.28134201 3.10546875 63.92578125 C0.81812221 66.50004233 -1.35220146 69.14211364 -3.51171875 71.82421875 C-7.19308564 76.37782587 -11.06446348 80.68504391 -15.05029297 84.96826172 C-18.04084516 88.20098079 -20.8744356 91.51609541 -23.63671875 94.94921875 C-27.26959299 99.46436245 -31.09589231 103.72621321 -35.04638672 107.95996094 C-38.10702357 111.26163499 -40.96282705 114.66890936 -43.76171875 118.19921875 C-50.73914732 126.79064326 -57.24769535 133.46623038 -68.609375 134.72265625 C-80.6747599 135.20750943 -87.27755328 130.08244226 -96.13671875 122.44921875 C-155.02042146 74.18147991 -225.85284953 36.62931873 -303.61328125 36.24609375 C-304.57361771 36.23907944 -305.53395416 36.23206512 -306.52339172 36.22483826 C-309.60288243 36.20744598 -312.68218074 36.20098658 -315.76171875 36.19921875 C-316.81473175 36.19854401 -317.86774475 36.19786926 -318.95266724 36.19717407 C-334.55425379 36.21306572 -349.75288916 36.61528328 -365.13671875 39.44921875 C-366.12494629 39.62614258 -367.11317383 39.80306641 -368.13134766 39.98535156 C-375.18172854 41.27656476 -382.16700225 42.77807492 -389.13671875 44.44921875 C-390.01215332 44.65885254 -390.88758789 44.86848633 -391.78955078 45.08447266 C-431.93278213 54.99252083 -469.66769841 75.82824556 -501.13671875 102.44921875 C-502.26033736 103.38551184 -503.38403944 104.32170479 -504.5078125 105.2578125 C-515.17926893 114.20977444 -525.21919036 123.72311532 -534.13671875 134.44921875 C-534.57532227 134.96339355 -535.01392578 135.47756836 -535.46582031 136.00732422 C-581.76233869 190.35343371 -609.02851436 263.80266229 -609.33984375 335.23046875 C-609.34685806 336.31454514 -609.35387238 337.39862152 -609.36109924 338.51554871 C-609.37849909 341.99348151 -609.3849512 345.47124402 -609.38671875 348.94921875 C-609.38739349 350.1376236 -609.38806824 351.32602844 -609.38876343 352.55044556 C-609.37296389 370.05028114 -609.01161013 387.15218936 -606.13671875 404.44921875 C-605.9651123 405.51382324 -605.79350586 406.57842773 -605.61669922 407.67529297 C-593.2580674 482.3461685 -556.38083725 557.72346076 -495.13671875 604.44921875 C-493.97238883 605.36554572 -492.80834511 606.28223643 -491.64453125 607.19921875 C-445.94860195 642.7698458 -387.80432351 665.36915165 -329.546875 665.65234375 C-328.57259048 665.65935806 -327.59830597 665.66637238 -326.59449768 665.67359924 C-323.46269046 665.69101434 -320.33107264 665.69745293 -317.19921875 665.69921875 C-316.12669861 665.69989349 -315.05417847 665.70056824 -313.94915771 665.70126343 C-297.16460425 665.68450237 -280.73840782 665.1411031 -264.13671875 662.44921875 C-263.03827637 662.27229492 -261.93983398 662.09537109 -260.80810547 661.91308594 C-245.96450358 659.44022002 -231.45467133 656.08269365 -217.13671875 651.44921875 C-216.26128418 651.16739746 -215.38584961 650.88557617 -214.48388672 650.59521484 C-171.38460453 636.45265278 -131.67076849 609.48178738 -97.13671875 580.44921875 C-94.35376891 578.15348001 -91.56399857 575.86675653 -88.765625 573.58984375 C-87.07723419 572.21504707 -85.396784 570.83040784 -83.7265625 569.43359375 C-75.54274724 562.75178232 -68.78063664 560.39702629 -58.13671875 561.44921875 C-43.97049794 563.63768808 -32.55034191 579.88075853 -22.95874023 589.49682617 C-20.44822801 592.01271161 -17.93239811 594.52319061 -15.41601562 597.03320312 C-13.79785626 598.65202312 -12.18000703 600.2711532 -10.5625 601.890625 C-9.82066971 602.63043106 -9.07883942 603.37023712 -8.31452942 604.13246155 C-4.2721538 608.19283561 -0.4196512 612.35324785 3.32176208 616.69200134 C5.22999563 618.86724592 7.25224899 620.88799477 9.34375 622.88671875 C10.11525391 623.63695312 10.88675781 624.3871875 11.68164062 625.16015625 C13.26713929 626.69206428 14.85834974 628.21808169 16.45507812 629.73828125 C23.35968471 636.48636023 27.92156253 643.21527501 28.11328125 653.13671875 C27.90483501 664.08816355 23.43759039 669.82689497 15.86328125 677.44921875 C15.10144531 678.23683594 14.33960937 679.02445313 13.5546875 679.8359375 C8.85891881 684.62936515 3.95480263 689.08505757 -1.13671875 693.44921875 C-2.2522183 694.42734151 -3.36671159 695.40661245 -4.48046875 696.38671875 C-12.24552099 703.20224292 -20.13578784 709.79001753 -28.33886719 716.07226562 C-29.55029005 717.00007998 -30.75923126 717.93114248 -31.96582031 718.86523438 C-111.17995037 780.13079389 -206.73202988 810.37561061 -320.57421875 811.63671875 C-322.07782959 811.63581238 -322.07782959 811.63581238 -323.61181641 811.6348877 C-421.75136452 811.47519086 -520.19996655 782.36217204 -598.13671875 721.44921875 C-599.33674521 720.52539913 -600.53726113 719.60221494 -601.73828125 718.6796875 C-618.09281446 706.05039108 -633.37345149 692.27086912 -648.01171875 677.69921875 C-648.71337158 677.00223877 -649.41502441 676.30525879 -650.13793945 675.5871582 C-654.67379223 671.03728424 -658.96238173 666.33156604 -663.13671875 661.44921875 C-663.60400391 660.90894043 -664.07128906 660.36866211 -664.55273438 659.81201172 C-685.65259927 635.38510018 -703.57928563 608.70312063 -719.13671875 580.44921875 C-719.63316895 579.54961426 -720.12961914 578.65000977 -720.64111328 577.72314453 C-748.08879013 527.59158495 -764.81815624 472.01390719 -772.13671875 415.44921875 C-772.30187988 414.19979492 -772.46704102 412.95037109 -772.63720703 411.66308594 C-784.55360652 316.94804302 -767.44088919 219.74128851 -700.13671875 91.44921875 C-699.45295166 90.4142627 -699.45295166 90.4142627 -698.75537109 89.35839844 C-687.03702018 71.72394593 -674.06038537 54.80429894 -659.69140625 39.25 C-657.74781659 37.11918381 -655.86141788 34.96524506 -653.984375 32.77734375 C-649.45424216 27.58493582 -644.58019916 22.74688475 -639.69921875 17.88671875 C-638.79623047 16.97986328 -637.89324219 16.07300781 -636.96289062 15.13867188 C-631.8493551 10.03254191 -626.64000075 5.13116086 -621.13671875 0.44921875 C-620.1725 -0.39640625 -619.20828125 -1.24203125 -618.21484375 -2.11328125 C-597.80393741 -19.70500163 -575.48067855 -35.11589396 -552.13671875 -48.55078125 C-551.5039502 -48.92058105 -550.87118164 -49.29038086 -550.21923828 -49.67138672 C-463.35322674 -100.29514597 -362.42144319 -116.27274326 0 0 Z " fill="#0A1425" transform="translate(3071.13671875,1093.55078125)"/>
<path d="M0 0 C0.97666626 0.00060425 1.95333252 0.0012085 2.95959473 0.00183105 C95.30842821 0.15557703 186.0833529 20.74404923 329.5 121.1875 C335.67351227 127.46590204 337.67660913 132.81214801 338 141.5 C337.68287994 153.45660076 332.29135016 159.87766432 324.328125 168.18359375 C321.73074783 170.90244986 319.34988277 173.75014654 317 176.6875 C313.36500611 181.20527813 309.5328971 185.46568516 305.5859375 189.70703125 C302.59558642 192.93961747 299.76213671 196.25455866 297 199.6875 C293.80068062 203.66379694 290.4741296 207.45416073 287 211.1875 C283.48722406 214.96309534 280.1195033 218.79926421 276.875 222.8125 C261.19697179 242.11711836 261.19697179 242.11711836 250.5 244.1875 C241.15476755 245.09813767 233.66770488 243.70112504 226.32421875 237.671875 C223.93657032 235.63435087 221.59368194 233.54872349 219.25 231.4609375 C213.00666563 225.93271308 206.25241951 221.06932694 199.5 216.1875 C198.73413574 215.63304199 197.96827148 215.07858398 197.17919922 214.50732422 C153.99020643 183.39965976 107.51620007 159.44580654 54.8125 149.9375 C53.98411621 149.78627686 53.15573242 149.63505371 52.30224609 149.47924805 C34.9078393 146.54595016 17.42023105 145.80641893 -0.1875 145.875 C-1.19157898 145.87715515 -2.19565796 145.8793103 -3.23016357 145.88153076 C-18.83659727 145.93510365 -34.09979113 146.43683982 -49.5 149.1875 C-50.6029541 149.38085938 -51.7059082 149.57421875 -52.84228516 149.7734375 C-77.81781942 154.30237166 -101.73239079 161.95999981 -124.5 173.1875 C-125.40669434 173.62932617 -126.31338867 174.07115234 -127.24755859 174.52636719 C-146.63971196 184.04850093 -164.7838018 195.47979374 -181.5 209.1875 C-182.06283691 209.64882324 -182.62567383 210.11014648 -183.20556641 210.58544922 C-197.87472334 222.70729158 -211.94919164 236.02706402 -223.5 251.1875 C-224.49861869 252.4477104 -225.49874011 253.70673081 -226.5 254.96484375 C-280.97134537 324.00637864 -300.93219851 414.69515539 -291.5 501.1875 C-281.74003589 581.56604741 -245.37573029 661.61504511 -180.75 712.625 C-178.94291247 714.02652518 -177.1292827 715.41880218 -175.31054688 716.80517578 C-174.12560849 717.7098577 -172.94444528 718.61951112 -171.76757812 719.53466797 C-127.25421861 754.10704736 -69.40436051 775.11600411 -12.91015625 775.390625 C-11.93587173 775.39763931 -10.96158722 775.40465363 -9.95777893 775.41188049 C-6.82597171 775.42929559 -3.69435389 775.43573418 -0.5625 775.4375 C0.51002014 775.43817474 1.58254028 775.43884949 2.68756104 775.43954468 C19.47474475 775.42278099 35.8946034 774.86789866 52.5 772.1875 C54.12373535 771.93009033 54.12373535 771.93009033 55.78027344 771.66748047 C122.05041299 760.81639967 179.64591024 725.02925234 229.65234375 681.44921875 C237.68231165 674.56799801 244.93752356 670.31329223 255.77734375 670.81640625 C265.59227195 672.15416547 271.64653963 677.37905415 278.5 684.1875 C279.21285156 684.87457031 279.92570312 685.56164063 280.66015625 686.26953125 C283.75592057 689.29371721 286.6758284 692.39127287 289.4831543 695.68383789 C294.01608582 700.87166876 298.92794065 705.64738528 303.8515625 710.4609375 C305.34568731 711.93295696 306.83798169 713.40681738 308.33029747 714.88067055 C311.97252405 718.47757796 315.61862509 722.0703391 319.28125 725.64648438 C321.84856696 728.1539464 324.40309663 730.67385144 326.94999313 733.20204544 C328.37515304 734.60999784 329.81346787 736.00459534 331.25210571 737.39877319 C338.23394175 744.35193836 343.98883547 751.72370461 344.5625 761.90625 C344.22497341 774.22597043 338.40561632 781.75170525 329.78125 790.07421875 C327.116079 792.54315285 324.41024746 794.95170862 321.65234375 797.31640625 C319.11947838 799.51829829 316.65667478 801.78945826 314.1875 804.0625 C309.7542187 808.10103707 305.22217766 811.96307413 300.55078125 815.72265625 C298.32103455 817.52415454 296.11403085 819.3420164 293.91796875 821.18359375 C284.57247691 828.97426879 274.84890547 835.96853812 264.72070312 842.70458984 C262.71428927 844.0444049 260.72176651 845.40173199 258.734375 846.76953125 C198.54403984 887.98888983 129.63178684 910.93606306 57.4375 918.4375 C56.6382309 918.52085602 55.83896179 918.60421204 55.01547241 918.69009399 C35.19002272 920.72405693 15.42365182 921.39684611 -4.5 921.375 C-6.04204102 921.37409363 -6.04204102 921.37409363 -7.61523438 921.37316895 C-23.99273494 921.34715075 -40.20217861 920.93558441 -56.5 919.1875 C-57.69270508 919.06391113 -58.88541016 918.94032227 -60.11425781 918.81298828 C-110.4480423 913.43266019 -158.66269935 899.72974092 -204.5 878.1875 C-205.92554199 877.52113525 -205.92554199 877.52113525 -207.37988281 876.84130859 C-253.13087201 855.26417481 -293.84792926 824.7453313 -329.65093994 789.21179199 C-330.65816232 788.21261139 -331.66686031 787.21491559 -332.67718506 786.21887207 C-339.4221657 779.55915695 -345.58307563 772.6021997 -351.5 765.1875 C-352.42334818 764.09764641 -353.35296 763.01301674 -354.29296875 761.9375 C-417.64238259 689.18385017 -452.1898418 591.65798817 -459.0625 483.4375 C-459.10568359 482.39851563 -459.14886719 481.35953125 -459.19335938 480.2890625 C-459.77773527 465.03963427 -459.5301675 449.85995865 -458.75 434.625 C-458.70709839 433.78533691 -458.66419678 432.94567383 -458.61999512 432.08056641 C-453.59422038 336.70312918 -419.91800756 244.23469239 -323.59326172 128.09545898 C-321.99546107 126.49545481 -320.40588449 124.88756385 -318.81640625 123.27929688 C-312.36650447 116.79468381 -305.6654491 110.88685567 -298.5 105.1875 C-297.39810439 104.25279997 -296.30176331 103.31144849 -295.21484375 102.359375 C-277.56009895 86.96423888 -257.75416938 73.90196503 -237.5 62.1875 C-236.84257813 61.80658203 -236.18515625 61.42566406 -235.5078125 61.03320312 C-163.02492317 19.30694212 -83.33847461 -0.096205 0 0 Z " fill="#0A1425" transform="translate(919.5,983.8125)"/>
<path d="M0 0 C1.03350586 -0.00644531 2.06701172 -0.01289063 3.13183594 -0.01953125 C17.59820541 0.22149766 32.79250798 5.39855467 43.390625 15.56640625 C53.8338063 27.20914216 59.87912881 41.25811167 59.3671875 57.04296875 C57.74543631 73.4958961 51.44099805 87.70659536 38.76953125 98.5078125 C28.71269878 106.26724451 17.07013634 112.25015913 5.125 116.5 C7.12103493 118.83682138 9.12178627 121.16934474 11.125 123.5 C11.63672256 124.10090454 12.14844513 124.70180908 12.67567444 125.32092285 C17.26354311 130.65000525 22.13414213 135.63917154 27.12109375 140.59375 C28.37141136 141.84194519 28.37141136 141.84194519 29.64698792 143.11535645 C32.28313262 145.74594935 34.92275105 148.37302441 37.5625 151 C39.36155979 152.79403855 41.1603902 154.58830715 42.95898438 156.3828125 C47.34500812 160.75787125 51.73388142 165.13005512 56.125 169.5 C57.23188541 167.94183535 58.33558469 166.38140711 59.43798828 164.82006836 C60.36044846 163.51699989 60.36044846 163.51699989 61.30154419 162.18760681 C64.16292061 157.9702001 66.59131807 153.54934007 69 149.0625 C69.76328613 147.65363525 69.76328613 147.65363525 70.54199219 146.21630859 C75.41184046 137.13680125 79.84135795 127.86776267 84.125 118.5 C89.91822689 120.29153984 95.31171315 122.38553928 100.6875 125.1875 C101.31462891 125.50783203 101.94175781 125.82816406 102.58789062 126.15820312 C104.10314795 126.93318206 105.61451872 127.71575296 107.125 128.5 C106.52228175 132.1976909 105.48205298 135.18111052 103.82421875 138.53515625 C103.34750732 139.4998584 102.8707959 140.46456055 102.37963867 141.45849609 C101.60390503 142.99497803 101.60390503 142.99497803 100.8125 144.5625 C100.27923096 145.62291504 99.74596191 146.68333008 99.1965332 147.77587891 C92.16986328 161.56137912 84.40132153 175.08802049 75.125 187.5 C76.40014662 190.26981025 77.74406746 192.39611337 79.828125 194.6171875 C80.38628906 195.21370117 80.94445313 195.81021484 81.51953125 196.42480469 C82.13183594 197.06836914 82.74414062 197.71193359 83.375 198.375 C84.33212891 199.3944873 84.33212891 199.3944873 85.30859375 200.43457031 C89.46347234 204.82135816 93.72088673 209.08815361 98.046875 213.3046875 C99.06224034 214.29957471 100.07753988 215.29452908 101.09277344 216.28955078 C103.09775223 218.25348163 105.11884794 220.19880579 107.14941406 222.13623047 C108.06948242 223.03486816 108.98955078 223.93350586 109.9375 224.859375 C111.18466797 226.05771973 111.18466797 226.05771973 112.45703125 227.28027344 C114.125 229.5 114.125 229.5 114.1027832 231.60595703 C112.92335597 233.89060035 111.73920695 234.9263871 109.66796875 236.4453125 C108.96736328 236.96480469 108.26675781 237.48429687 107.54492188 238.01953125 C106.80822266 238.54933594 106.07152344 239.07914063 105.3125 239.625 C104.58740234 240.16253906 103.86230469 240.70007812 103.11523438 241.25390625 C99.87305601 243.63288799 96.76883719 245.77543583 93.125 247.5 C89.54705548 243.94700628 85.97258614 240.39056349 82.40112305 236.83105469 C81.18882752 235.62374935 79.9756313 234.41734766 78.76147461 233.21191406 C66.41540253 220.95224924 66.41540253 220.95224924 61.57446289 215.06835938 C59.91788781 213.27589882 58.11141496 211.91052267 56.125 210.5 C55.25875 211.428125 54.3925 212.35625 53.5 213.3125 C32.20601916 234.47794574 6.06873315 245.76064633 -23.96435547 245.7487793 C-41.59917281 245.55512788 -57.45909421 240.82364866 -71.875 230.5 C-72.50921875 230.05140625 -73.1434375 229.6028125 -73.796875 229.140625 C-85.88990688 219.71027904 -92.78167324 205.19871001 -95.875 190.5 C-96.3090667 186.59306837 -96.4002695 182.74142803 -96.375 178.8125 C-96.36927979 177.76811768 -96.36355957 176.72373535 -96.35766602 175.64770508 C-95.94957472 157.80023776 -88.96093018 144.12195408 -76.7109375 131.19140625 C-66.23959184 121.25372421 -53.99738276 115.25498788 -40.875 109.5 C-43.20409689 105.96584863 -45.59995104 102.52033282 -48.125 99.125 C-59.64265695 82.56836813 -65.19204835 65.32654569 -61.75 45.125 C-58.3589084 29.64731127 -49.8536045 17.803703 -36.75 9.0625 C-24.81876303 2.37038933 -13.63361141 0.08060072 0 0 Z M-26.875 33.5 C-33.28539538 41.20410329 -36.55561171 49.49716724 -36.21875 59.546875 C-34.240918 76.53824993 -23.77397842 88.24088634 -12.875 100.5 C2.83925578 96.85753799 19.14633001 87.92900359 28.1875 74.25 C32.8483289 65.78647315 34.1114933 56.824475 32.0625 47.375 C29.34517024 37.99778615 24.77428587 32.40511857 16.78515625 26.91015625 C2.56955241 19.37442499 -15.49472225 22.48682798 -26.875 33.5 Z M-54.85546875 145.2890625 C-63.83736967 154.60803255 -68.1875 166.44277961 -68.1875 179.15307617 C-67.95708734 190.7954611 -63.56292711 199.82644121 -55.875 208.5 C-43.99363547 219.76105233 -29.85465826 222.11642473 -14.1484375 221.80859375 C6.35533519 220.92651428 22.94926232 208.32737362 37.125 194.5 C38.115 193.015 38.115 193.015 39.125 191.5 C30.04862017 181.71938599 20.8453018 172.09921387 11.33056641 162.74267578 C8.02211954 159.47335542 4.80162039 156.18878023 1.76953125 152.66015625 C-2.78577221 147.3706933 -7.70465828 142.44763904 -12.625 137.5 C-13.57945895 136.52477077 -14.53388623 135.54951055 -15.48828125 134.57421875 C-16.39449219 133.66285156 -17.30070312 132.75148438 -18.234375 131.8125 C-19.05389648 130.98363281 -19.87341797 130.15476562 -20.71777344 129.30078125 C-28.45651242 122.84073838 -49.09267798 140.08322784 -54.85546875 145.2890625 Z " fill="#0A1425" transform="translate(1346.875,2117.5)"/>
<path d="M0 0 C57.09 0 114.18 0 173 0 C173 16 173 16 172 26 C124.48 26 76.96 26 28 26 C28 52.4 28 78.8 28 106 C70.57 106 113.14 106 157 106 C157 114.25 157 122.5 157 131 C114.43 131 71.86 131 28 131 C28 158.06 28 185.12 28 213 C76.18 213 124.36 213 174 213 C174 221.58 174 230.16 174 239 C164.01150743 239.02361088 154.02303641 239.04147517 144.0345211 239.05181217 C139.38481914 239.0567999 134.73513867 239.06338462 130.08544922 239.07543945 C86.71456955 239.17838625 43.37529972 238.50436395 0 238 C0 159.46 0 80.92 0 0 Z " fill="#0A1425" transform="translate(1742,2122)"/>
<path d="M0 0 C25.43601779 0 50.86335579 0.00213355 76.296875 0.21875 C79.10377732 0.24152265 81.91068385 0.26375739 84.71759033 0.28601074 C91.20434219 0.33773099 97.69107831 0.39119189 104.17780995 0.4453826 C111.59826649 0.50728108 119.01873956 0.56708007 126.43921423 0.62675762 C141.62616163 0.74893955 156.8130849 0.87385614 172 1 C172 9.25 172 17.5 172 26 C124.48 26 76.96 26 28 26 C28 52.4 28 78.8 28 106 C70.57 106 113.14 106 157 106 C157 114.25 157 122.5 157 131 C114.1 131 71.2 131 27 131 C27 158.06 27 185.12 27 213 C75.51 213 124.02 213 174 213 C174 221.58 174 230.16 174 239 C116.58 239 59.16 239 0 239 C0 160.13 0 81.26 0 0 Z " fill="#0A1425" transform="translate(2568,2123)"/>
<path d="M0 0 C9.24 0 18.48 0 28 0 C28.06712835 21.27129542 27.81875816 42.53266422 27.53643799 63.80157471 C27.47492953 68.46210223 27.41528893 73.12265368 27.35546875 77.78320312 C27.23875788 86.85549242 27.12005291 95.92775435 27 105 C28.3389608 104.99666908 28.3389608 104.99666908 29.70497131 104.99327087 C41.15747206 104.96613708 52.609972 104.94813868 64.0625 104.9375 C64.97747631 104.93664398 65.89245262 104.93578796 66.83515549 104.93490601 C98.90771596 104.90840753 130.93302861 105.28541568 163 106 C163 71.02 163 36.04 163 0 C172.24 0 181.48 0 191 0 C191 78.54 191 157.08 191 238 C181.76 238 172.52 238 163 238 C163 203.02 163 168.04 163 132 C133.58214349 132.03921749 133.58214349 132.03921749 104.16430664 132.09008789 C98.31921387 132.09460449 98.31921387 132.09460449 95.53562927 132.09544373 C93.69492853 132.09692441 91.85422837 132.10031618 90.01353455 132.10557556 C68.99017984 132.16234203 48.03192154 131.5129737 27 131 C27 166.31 27 201.62 27 238 C17.76 238 8.52 238 -1 238 C-1.0766228 188.87839866 -0.86242924 139.76108699 -0.55461788 90.64051938 C-0.49252945 80.71913306 -0.43282529 70.79773273 -0.37324238 60.87633109 C-0.25132874 40.58420506 -0.12658711 20.29209737 0 0 Z " fill="#0A1425" transform="translate(2243,2123)"/>
<path d="M0 0 C9.24 0 18.48 0 28 0 C28 34.98 28 69.96 28 106 C72.55 106 117.1 106 163 106 C163 84.88 163 63.76 163 42 C163.58035714 12.98214286 163.58035714 12.98214286 164 0 C167.37498158 -0.02922646 170.74993021 -0.04687468 174.125 -0.0625 C175.55199219 -0.07506836 175.55199219 -0.07506836 177.0078125 -0.08789062 C177.9359375 -0.09111328 178.8640625 -0.09433594 179.8203125 -0.09765625 C180.66867676 -0.10289307 181.51704102 -0.10812988 182.39111328 -0.11352539 C185 0 185 0 191 1 C191 79.54 191 158.08 191 239 C181.76 239 172.52 239 163 239 C163 203.69 163 168.38 163 132 C118.12 132 73.24 132 27 132 C27 166.98 27 201.96 27 238 C18.09 238 9.18 238 0 238 C0 159.46 0 80.92 0 0 Z " fill="#0A1425" transform="translate(3729,2125)"/>
<path d="M0 0 C8.91 0 17.82 0 27 0 C28.77375 3.96 30.5475 7.92 32.375 12 C44.43259683 38.90214982 56.53694409 65.78307113 68.69509888 92.6399231 C74.49913552 105.46159595 80.28893425 118.28957687 86.0625 131.125 C86.43230988 131.94711975 86.80211975 132.7692395 87.18313599 133.61627197 C90.1610574 140.23692288 93.13786662 146.85807372 96.11462402 153.47924805 C98.34971604 158.45063305 100.58527501 163.42180767 102.82125854 168.39279175 C103.92959533 170.85742222 105.03720774 173.32237733 106.14477539 175.78735352 C110.16835057 184.7374032 114.21487419 193.67655857 118.28515625 202.60546875 C119.59759107 205.48924578 120.90969156 208.37317472 122.22171021 211.25714111 C123.06582542 213.10965228 123.91171816 214.96135464 124.75949097 216.81219482 C125.93774262 219.38456462 127.1100383 221.95957519 128.28125 224.53515625 C128.62934219 225.29064255 128.97743439 226.04612885 129.33607483 226.82450867 C129.82037209 227.89376335 129.82037209 227.89376335 130.31445312 228.98461914 C130.59325317 229.59455215 130.87205322 230.20448517 131.15930176 230.832901 C132.31631935 233.81538809 133.12115346 236.92403711 134 240 C124.1 240 114.2 240 104 240 C101.958125 235.50375 99.91625 231.0075 97.8125 226.375 C97.19995361 225.02970215 96.58740723 223.6844043 95.95629883 222.29833984 C89.45737914 207.94464588 83.24256504 193.46648957 77 179 C63.91672936 178.82830571 50.83339651 178.6618227 37.75 178.5 C36.78997574 178.48812275 35.82995148 178.4762455 34.84083557 178.46400833 C6.22626952 178.11154014 -22.38285745 177.83218024 -51 178 C-60.51374723 198.59105376 -69.94150686 219.20374109 -79 240 C-88.57 240 -98.14 240 -108 240 C-104.63013412 229.89040235 -104.63013412 229.89040235 -102.42578125 225.26171875 C-101.93190918 224.21411377 -101.43803711 223.16650879 -100.92919922 222.0871582 C-100.12893311 220.40432739 -100.12893311 220.40432739 -99.3125 218.6875 C-98.12953452 216.17661482 -96.95234435 213.66305885 -95.77734375 211.1484375 C-95.46980164 210.49041641 -95.16225952 209.83239532 -94.84539795 209.1544342 C-91.24543681 201.4225751 -87.81570907 193.616136 -84.375 185.8125 C-78.56136511 172.63932499 -72.58318457 159.55077553 -66.5 146.5 C-60.54287686 133.71921689 -54.68783166 120.90292491 -49 108 C-42.92849687 94.22671103 -36.6538862 80.55714857 -30.29483032 66.91442871 C-23.7945791 52.96129897 -17.45969912 38.94217743 -11.25 24.85742188 C-10.63938023 23.47263098 -10.02870481 22.08786462 -9.41796875 20.703125 C-9.12973236 20.04940918 -8.84149597 19.39569336 -8.54452515 18.72216797 C-5.76994288 12.44677248 -2.89364143 6.22155063 0 0 Z M12 35 C3.6299354 53.20018066 -4.67589733 71.42537614 -12.77835083 89.74645996 C-16.87382044 99.00596112 -21.0072417 108.24680268 -25.1953125 117.46484375 C-25.63233994 118.42733536 -26.06936737 119.38982697 -26.51963806 120.38148499 C-28.66510227 125.10484701 -30.81472704 129.82625856 -32.9699707 134.54516602 C-33.74962161 136.25922736 -34.52916795 137.97333628 -35.30859375 139.6875 C-35.66821198 140.47120468 -36.0278302 141.25490936 -36.39834595 142.06236267 C-36.72765106 142.78815018 -37.05695618 143.51393768 -37.39624023 144.26171875 C-37.82681984 145.20470825 -37.82681984 145.20470825 -38.26609802 146.16674805 C-39.03505605 148.08756833 -39.54374296 149.98403315 -40 152 C-30.90429905 152.13311826 -21.80856487 152.26362366 -12.71278381 152.39115143 C-8.48526219 152.45049805 -4.25775498 152.51061271 -0.03027344 152.57275391 C21.9815558 152.89563412 43.98568743 153.07533591 66 153 C61.44015013 141.70036807 56.61993018 130.5460913 51.57992554 119.45278931 C49.59314121 115.07846712 47.61649177 110.69957481 45.640625 106.3203125 C45.24465622 105.44282852 44.84868744 104.56534454 44.4407196 103.66127014 C40.79586366 95.57119226 37.22807088 87.44865587 33.6875 79.3125 C27.23635226 64.49119665 20.64328131 49.73612727 14 35 C13.34 35 12.68 35 12 35 Z " fill="#0A1425" transform="translate(2950,2122)"/>
<path d="M0 0 C8.58 0 17.16 0 26 0 C30.49343954 8.87496278 34.7856751 17.77674831 38.8125 26.875 C39.65351127 28.76415804 40.49577339 30.65275575 41.3380127 32.54136658 C41.93855378 33.88826128 42.5387262 35.23532041 43.1385498 36.58253479 C46.94396429 45.12803464 50.78512382 53.65744496 54.625 62.1875 C55.00084229 63.02276215 55.37668457 63.85802429 55.76391602 64.71859741 C62.16729358 78.94902502 68.59660394 93.16763914 75.03302002 107.38314819 C80.38619795 119.20714276 85.71697832 131.04060777 91.015625 142.88916016 C94.14618921 149.88291121 97.29458641 156.86827227 100.45703125 163.84765625 C100.85062836 164.71633331 101.24422546 165.58501038 101.64974976 166.48001099 C103.27661961 170.07019019 104.90359267 173.6603226 106.53076172 177.25036621 C113.09522393 191.73820551 119.58702498 206.25706548 126.01293945 220.80688477 C126.32834183 221.51972122 126.6437442 222.23255768 126.96870422 222.96699524 C127.54898231 224.27868067 128.12810197 225.59087957 128.70573425 226.9037323 C129.96552216 229.75012802 131.27643204 232.53996604 132.6953125 235.31152344 C134 238 134 238 134 240 C124.1 240 114.2 240 104 240 C97.2528616 226.5057232 97.2528616 226.5057232 94.6328125 220.4609375 C94.34953094 219.81033356 94.06624939 219.15972961 93.77438354 218.4894104 C92.88818562 216.45259018 92.00636321 214.41391622 91.125 212.375 C86.14199202 200.88974017 81.08500596 189.4412634 76 178 C33.76 178 -8.48 178 -52 178 C-56.29 187.57 -60.58 197.14 -65 207 C-67.76507005 213.10688862 -70.53263219 219.21237749 -73.3125 225.3125 C-73.97598679 226.77014801 -74.6393979 228.22783046 -75.30273438 229.68554688 C-76.86750246 233.12414905 -78.43375844 236.56206729 -80 240 C-89.57 240 -99.14 240 -109 240 C-107.44654419 235.33963256 -105.71949317 231.01195467 -103.6484375 226.5859375 C-103.31777283 225.8717868 -102.98710815 225.15763611 -102.64642334 224.42184448 C-101.93235828 222.87966029 -101.21702396 221.33806329 -100.50054932 219.79699707 C-94.24567788 206.33754213 -88.11356203 192.82985705 -82.125 179.25 C-76.00650845 165.38516838 -69.6843352 151.62328467 -63.2822876 137.8873291 C-57.73368958 125.97649845 -52.30011755 114.02339008 -47 102 C-40.92937095 88.22869391 -34.6584851 74.55963504 -28.29684448 60.92047119 C-21.71333826 46.79979913 -15.31644508 32.60492471 -9.07421875 18.33007812 C-8.76072983 17.61687408 -8.44724091 16.90367004 -8.12425232 16.16885376 C-7.54868766 14.85910249 -6.97615807 13.54801043 -6.40760803 12.23519897 C-4.51294092 7.93036411 -2.36400738 4.13701291 0 0 Z M12 33 C11.23837747 34.69249452 10.47675515 36.38498914 9.71513367 38.07748413 C9.02129955 39.61933542 8.32746193 41.16118513 7.63362122 42.70303345 C5.64442021 47.12343789 3.65528596 51.54387236 1.66625977 55.96435547 C-2.42302111 65.05234159 -6.51303211 74.13999698 -10.60546875 83.2265625 C-15.0742312 93.14928091 -19.53870162 103.07392359 -24 113 C-24.39906555 113.88770081 -24.7981311 114.77540161 -25.20928955 115.69000244 C-27.63368934 121.08346664 -30.05588118 126.47791335 -32.47506714 131.87371826 C-33.23787563 133.57440405 -34.00131739 135.27480594 -34.76541138 136.97491455 C-35.81673312 139.31451811 -36.86571349 141.65515695 -37.9140625 143.99609375 C-38.22871964 144.6950325 -38.54337677 145.39397125 -38.86756897 146.11408997 C-40.35688176 148.95103401 -40.35688176 148.95103401 -41 152 C-6.02 152 28.96 152 65 152 C63.81828665 148.45485996 62.74088925 145.22977341 61.23852539 141.87036133 C60.89886749 141.10703995 60.55920959 140.34371857 60.20925903 139.55726624 C59.84243011 138.74043869 59.4756012 137.92361115 59.09765625 137.08203125 C58.7081076 136.20836411 58.31855896 135.33469696 57.91720581 134.43455505 C57.07507556 132.54660819 56.23168786 130.65922182 55.38717651 128.77233887 C53.58486712 124.74528371 51.78871114 120.71549434 49.99226379 116.68582153 C49.05944669 114.59346429 48.12632742 112.50124174 47.19291687 110.40914917 C42.41619918 99.70042713 37.67342212 88.97681315 32.9375 78.25 C32.34479309 76.90796509 32.34479309 76.90796509 31.7401123 75.53881836 C25.48032931 61.36496885 19.23091967 47.18656477 13 33 C12.67 33 12.34 33 12 33 Z " fill="#0A1425" transform="translate(686,2119)"/>
<path d="M0 0 C0.98742188 -0.02835938 1.97484375 -0.05671875 2.9921875 -0.0859375 C10.60329229 1.03390086 15.65215857 6.46374402 20.84863281 11.69458008 C21.58610748 12.4251915 22.32358215 13.15580292 23.08340454 13.90855408 C25.50601506 16.31294261 27.91745912 18.72817124 30.328125 21.14453125 C32.01450702 22.82634997 33.70125993 24.50779687 35.3883667 26.18888855 C38.91695821 29.70855846 42.43983032 33.2338344 45.95898438 36.76293945 C50.46525443 41.28070977 54.98720143 45.78241245 59.5137825 50.27982044 C62.99868802 53.7463679 66.47422382 57.22219133 69.94710541 60.70078087 C71.6105734 62.36440205 73.27714255 64.02492843 74.94687653 65.68226051 C77.28062648 68.00110745 79.60122971 70.33237743 81.91894531 72.66723633 C82.6078183 73.34644135 83.29669128 74.02564636 84.00643921 74.72543335 C89.04845597 79.84572189 92.55003612 84.8217089 92.5625 92.3125 C92.58183594 93.08464844 92.60117188 93.85679688 92.62109375 94.65234375 C90.78873328 104.70868427 83.04448747 110.95258091 76.0625 117.75 C74.94900207 118.85198849 73.83636412 119.95484665 72.72460938 121.05859375 C71.65962921 122.11016051 70.59390019 123.16096952 69.52734375 124.2109375 C69.03040512 124.7004892 68.53346649 125.19004089 68.02146912 125.69442749 C63.52175787 130.07056212 60.49985311 132.06148263 54.125 132.375 C46.08322024 130.41262324 41.74103244 125.55185365 36.1484375 119.67578125 C35.21173815 118.71447229 34.27344543 117.7547136 33.33364868 116.7964325 C29.87166177 113.26008655 26.4359853 109.69859328 23.00384521 106.13330078 C20.09175157 103.10926301 17.16801913 100.09752467 14.22658157 97.10201073 C12.85741268 95.69780596 11.50632753 94.27604162 10.15560913 92.8540802 C9.32099152 92.00287094 8.4863739 91.15166168 7.62646484 90.2746582 C6.90002777 89.51981644 6.1735907 88.76497467 5.42514038 87.98725891 C2.41922793 85.88029658 0.72561038 85.85356573 -2.875 86.375 C-4.97300364 87.5403912 -4.97300364 87.5403912 -6.69970703 89.32861328 C-7.37938538 89.97106995 -8.05906372 90.61352661 -8.75933838 91.27545166 C-9.45750671 91.96830261 -10.15567505 92.66115356 -10.875 93.375 C-11.57268494 94.05318787 -12.27036987 94.73137573 -12.98919678 95.43011475 C-15.23930473 97.64001607 -17.46171466 99.87505304 -19.6796875 102.1171875 C-20.48487823 102.92616486 -21.29006897 103.73514221 -22.11965942 104.56863403 C-24.66556536 107.12665877 -27.20817649 109.68791907 -29.75 112.25 C-33.11955067 115.64607262 -36.4923523 119.03886729 -39.8671875 122.4296875 C-40.64109833 123.21189667 -41.41500916 123.99410583 -42.21237183 124.80001831 C-42.92716705 125.51811676 -43.64196228 126.23621521 -44.37841797 126.97607422 C-45.00714813 127.6100412 -45.6358783 128.24400818 -46.28366089 128.89718628 C-48.91008318 131.33624083 -50.99496996 131.65797028 -54.5 131.875 C-55.31726562 131.9471875 -56.13453125 132.019375 -56.9765625 132.09375 C-61.683303 130.92657985 -64.45371992 127.69414151 -67.875 124.375 C-68.75591309 123.53098633 -69.63682617 122.68697266 -70.54443359 121.81738281 C-72.97023898 119.4691866 -75.37609506 117.10458735 -77.76806641 114.72216797 C-79.26156647 113.23850975 -80.76541864 111.76585749 -82.26953125 110.29296875 C-83.22982059 109.33919961 -84.1894794 108.38479511 -85.1484375 107.4296875 C-86.00872559 106.57874512 -86.86901367 105.72780273 -87.75537109 104.85107422 C-91.02011484 101.03731805 -92.16967102 97.5348639 -92.25 92.5625 C-92.27835938 91.77230469 -92.30671875 90.98210937 -92.3359375 90.16796875 C-91.01583817 82.16906178 -85.97981922 76.90124076 -80.43188477 71.43017578 C-79.68830719 70.68119522 -78.94472961 69.93221466 -78.17861938 69.16053772 C-75.73433041 66.70380817 -73.27591193 64.26180071 -70.81640625 61.8203125 C-69.10708472 60.11083591 -67.39843058 58.40069175 -65.69041443 56.68991089 C-62.11656963 53.11468431 -58.5358731 49.54651064 -54.94995117 45.98339844 C-50.35353864 41.41542299 -45.77291486 36.83199154 -41.19706821 32.24342537 C-37.67426525 28.71367069 -34.14413629 25.19131901 -30.61164665 21.67126083 C-28.91948901 19.98361878 -27.22941763 18.29388219 -25.5414753 16.60202408 C-23.18408767 14.241728 -20.81723315 11.89135919 -18.44750977 9.54345703 C-17.75176346 8.84320908 -17.05601715 8.14296112 -16.33918762 7.42149353 C-11.17959406 2.34064458 -7.40260791 0.09613777 0 0 Z " fill="#0A1425" transform="translate(1870.875,1361.625)"/>
<path d="M0 0 C1.10085938 -0.01675781 2.20171875 -0.03351563 3.3359375 -0.05078125 C10.87061118 0.7814333 15.24047319 5.49526408 20.3269043 10.6262207 C21.07398651 11.36804596 21.82106873 12.10987122 22.59078979 12.87417603 C25.05118571 15.32139912 27.50048126 17.7793966 29.94921875 20.23828125 C31.65937695 21.94641795 33.36998023 23.65410916 35.08100891 25.3613739 C38.662504 28.93844929 42.23852486 32.52088649 45.81079102 36.10717773 C50.38718063 40.70065861 54.97690567 45.28054063 59.5708189 49.85648823 C63.1047051 53.37952728 66.63140656 56.90968876 70.15598488 60.44203758 C71.84545571 62.13350782 73.53715286 63.82275743 75.23111534 65.50972939 C77.59851116 67.86949586 79.9560591 70.2386852 82.3112793 72.6105957 C83.01107407 73.30431778 83.71086884 73.99803986 84.43186951 74.71278381 C89.4065976 79.75292582 93.05167152 84.30247335 93.0625 91.6875 C93.08183594 92.56148437 93.10117188 93.43546875 93.12109375 94.3359375 C91.6322625 103.26892502 85.71990379 108.77751592 79.4375 114.875 C78.62474609 115.68646484 77.81199219 116.49792969 76.97460938 117.33398438 C62.44004929 131.66041234 62.44004929 131.66041234 55.5625 132.1875 C51.6905533 131.80424839 49.7058247 130.93378456 46.85791016 128.30200195 C46.16860413 127.66743073 45.4792981 127.0328595 44.769104 126.37905884 C41.10432299 122.84682086 37.51767292 119.24627594 33.9609375 115.60546875 C32.32856799 113.95073476 30.69574207 112.2964509 29.0625 110.64257812 C26.51904926 108.06191216 23.97883041 105.47833861 21.44628906 102.88696289 C18.98108814 100.3673336 16.5034178 97.86054115 14.0234375 95.35546875 C13.27017181 94.57842087 12.51690613 93.80137299 11.74081421 93.0007782 C6.55491911 87.56123639 6.55491911 87.56123639 -0.375 85.3125 C-6.55076494 88.17863975 -11.11753155 93.8388228 -15.82421875 98.63671875 C-16.71865189 99.53872513 -17.61308502 100.44073151 -18.53462219 101.37007141 C-21.38212174 104.24194217 -24.22326193 107.11996827 -27.0625 110 C-30.81041664 113.80154844 -34.56538476 117.59595594 -38.32421875 121.38671875 C-39.18673752 122.2658342 -40.04925629 123.14494965 -40.93791199 124.05070496 C-42.13979912 125.26250175 -42.13979912 125.26250175 -43.3659668 126.4987793 C-44.42136909 127.56989204 -44.42136909 127.56989204 -45.49809265 128.66264343 C-48.77808535 131.54585315 -52.01543828 131.47487013 -56.2421875 131.640625 C-61.68251689 130.80365125 -65.48103097 126.52611296 -69.2265625 122.796875 C-69.76727386 122.26282043 -70.30798523 121.72876587 -70.86508179 121.17852783 C-72.00219031 120.05150367 -73.13663837 118.92178958 -74.26855469 117.78955078 C-75.99128896 116.07118893 -77.72937685 114.36946528 -79.46875 112.66796875 C-80.57650023 111.5660879 -81.68330307 110.46325364 -82.7890625 109.359375 C-83.30473785 108.85807068 -83.82041321 108.35676636 -84.35171509 107.840271 C-88.75196268 103.3840993 -91.80034204 98.30655939 -91.8125 91.875 C-91.83183594 91.19566406 -91.85117188 90.51632812 -91.87109375 89.81640625 C-90.3158548 81.96673564 -85.41745447 76.78070183 -79.91601562 71.36767578 C-79.17083176 70.61869522 -78.42564789 69.86971466 -77.65788269 69.09803772 C-75.20864875 66.6414343 -72.74538446 64.19946214 -70.28125 61.7578125 C-68.56946067 60.0484091 -66.85841189 58.33826382 -65.14807129 56.62741089 C-61.56987451 53.05233561 -57.98507886 49.48406054 -54.39501953 45.92089844 C-49.79128836 41.3512229 -45.20090992 36.76841481 -40.61493683 32.18092537 C-37.08626578 28.65279769 -33.55241012 25.12990283 -30.01676941 21.60876083 C-28.32187787 19.92023578 -26.62819681 18.23049478 -24.93574524 16.53952408 C-22.57347802 14.18158689 -20.20474663 11.8303488 -17.83398438 9.48095703 C-16.784972 8.4305851 -16.784972 8.4305851 -15.71476746 7.35899353 C-15.06715958 6.71991562 -14.4195517 6.08083771 -13.75231934 5.4223938 C-12.91390629 4.58900828 -12.91390629 4.58900828 -12.0585556 3.7387867 C-8.19550703 0.46606153 -5.00566343 0.01750232 0 0 Z " fill="#0A1425" transform="translate(1604.375,1361.6875)"/>
<path d="M0 0 C61.71 0 123.42 0 187 0 C187 8.58 187 17.16 187 26 C160.6 26 134.2 26 107 26 C107 95.96 107 165.92 107 238 C97.76 238 88.52 238 79 238 C79 168.04 79 98.08 79 26 C54.25 26 29.5 26 4 26 C2.68 25.67 1.36 25.34 0 25 C0 16.75 0 8.5 0 0 Z " fill="#0A1425" transform="translate(3425,2125)"/>
<path d="M0 0 C9.24 0 18.48 0 28 0 C28.02313562 27.0334769 28.04098779 54.06695141 28.05181217 81.10043621 C28.0569714 93.65216598 28.06400703 106.20388948 28.07543945 118.75561523 C28.08539765 129.69397781 28.09185615 140.63233586 28.09408849 151.57070285 C28.09539366 157.36400686 28.09846734 163.1572979 28.10573006 168.95059776 C28.11250815 174.40139047 28.11461329 179.85216483 28.11310768 185.30296135 C28.1133832 187.30527089 28.11537772 189.30758103 28.11920547 191.30988693 C28.12417061 194.04069494 28.1229878 196.77143347 28.12025452 199.50224304 C28.12316736 200.29699608 28.1260802 201.09174912 28.12908131 201.91058558 C28.1184709 205.82478699 27.77558287 209.12208563 27 213 C71.22 213 115.44 213 161 213 C161 221.58 161 230.16 161 239 C107.87 239 54.74 239 0 239 C0 160.13 0 81.26 0 0 Z " fill="#0A1425" transform="translate(3198,2124)"/>
<path d="M0 0 C9.24 0 18.48 0 28 0 C28.09467512 46.82342121 27.82581647 93.64393224 27.55461788 140.46639121 C27.49290353 151.13240147 27.43301994 161.79842182 27.37324238 172.46444309 C27.25077269 194.30963998 27.12608961 216.15482372 27 238 C17.76 238 8.52 238 -1 238 C-0.67 159.46 -0.34 80.92 0 0 Z " fill="#0A1425" transform="translate(936,2121)"/>
<path d="M0 0 C11.05757027 -0.02263683 22.11512503 -0.04096472 33.17271328 -0.05181217 C38.30777793 -0.05701969 43.44282584 -0.06407849 48.57788086 -0.07543945 C53.53807298 -0.08634425 58.49824904 -0.09229288 63.45845222 -0.09487724 C65.34616409 -0.09671784 67.23387513 -0.10031198 69.12158012 -0.10573006 C71.77565247 -0.11304137 74.42965936 -0.11398671 77.08374023 -0.11352539 C78.24144928 -0.1189183 78.24144928 -0.1189183 79.42254639 -0.12442017 C84.74907056 -0.1144714 89.6344517 0.40382797 95 1 C95 10.24 95 19.48 95 29 C63.65 29 32.3 29 0 29 C0 19.43 0 9.86 0 0 Z " fill="#0A1425" transform="translate(2025,2244)"/>
</svg>
